# xmcd CD database file
#
# Track frame offsets:
#	150
#	11634
#	18828
#	25558
#	40738
#	50650
#	61934
#	76311
#	84286
#	91570
#	101505
#	114809
#	126701
#	135408
#	146698
#	154985
#	167272
#	174874
#
# Disc length: 2437 seconds
#
# Revision: 1
# Processed by: cddbd v1.5.1PL2 Copyright (c) Steve Scherf et al.
# Submitted via: CDex 1.51
#
DISCID=cb098312
DTITLE=Jim Reeves - Gentleman Jim
DYEAR=1996
DGENRE=Country
TTITLE0=I Love You More
TTITLE1=I'm Beginning To Forget You
TTITLE2=Have I Told You Lately That I Love You
TTITLE3=Making Believe
TTITLE4=Dear Hearts And Gentle People
TTITLE5=If Heartaches Are The Fashion
TTITLE6=The Highway To Nowhere
TTITLE7=Roly Poly
TTITLE8=Everywhere You Go
TTITLE9=Home
TTITLE10=How's The World Treating You
TTITLE11=I've Lived A Lot In My Time
TTITLE12=If You Ware Mine
TTITLE13=Just Call Me Lonesome
TTITLE14=Sweet Evening Breeze
TTITLE15=Your Old Love Letters
TTITLE16=The Oklahoma Hills
TTITLE17=Till The End Of The World
EXTD=Live YEAR: 1996
EXTT0=Live
EXTT1=Live
EXTT2=Live
EXTT3=Live
EXTT4=Live
EXTT5=Live
EXTT6=Live
EXTT7=Live
EXTT8=Live
EXTT9=Live
EXTT10=Live
EXTT11=Live
EXTT12=Live
EXTT13=Live
EXTT14=Live
EXTT15=Live
EXTT16=Live
EXTT17=Live
PLAYORDER=
